<svg width="47" height="47" viewBox="0 0 47 47" fill="none" xmlns="http://www.w3.org/2000/svg">
<path d="M43.5089 10.0354V36.965C43.5089 37.2617 43.4915 37.5584 43.4508 37.8435C43.0203 41.0431 40.2802 43.5098 36.9641 43.5098H10.0345C9.73199 43.5098 9.44111 43.4923 9.15023 43.4458C5.95638 43.0153 3.48972 40.2752 3.48972 36.965V10.0354C3.48972 9.73285 3.50717 9.44197 3.55371 9.15109C3.98421 5.95723 6.7243 3.49057 10.0345 3.49057H36.9641C37.2608 3.49057 37.5575 3.50802 37.8426 3.54875C41.0423 3.97925 43.5089 6.71933 43.5089 10.0354Z" fill="#990021"/>
<path d="M37.7881 3.62595C37.5041 3.58538 37.2086 3.56799 36.9131 3.56799H20.2473L29.8782 0.340104C33.0074 -0.708816 36.3741 0.745764 37.7881 3.62595Z" fill="#009899"/>
<path d="M3.63393 9.20673C3.58757 9.49648 3.57018 9.78624 3.57018 10.0876V26.7544L0.3425 17.1229C-0.712147 13.9935 0.748134 10.6207 3.63393 9.20673Z" fill="#009899"/>
<path d="M26.7436 43.4326L17.1243 46.6604C13.9951 47.7094 10.6284 46.249 9.20864 43.3688C9.49838 43.4152 9.78812 43.4326 10.0894 43.4326H26.7436Z" fill="#009899"/>
<path d="M43.3742 37.7884C43.4148 37.5044 43.4321 37.2089 43.4321 36.9133V20.2581L46.6598 29.878C47.7087 33.0074 46.2542 36.3686 43.3742 37.7884Z" fill="#009899"/>
<path d="M24.9181 37.122C22.832 37.122 20.9024 36.7917 19.1292 36.1369C17.356 35.482 15.8146 34.5432 14.5107 33.3262C13.2069 32.1093 12.1986 30.6721 11.4743 29.0089C10.7557 27.3457 10.3964 25.5086 10.3964 23.4977C10.3964 21.4868 10.7557 19.6497 11.4743 17.9865C12.1928 16.3233 13.2069 14.8861 14.5107 13.6691C15.8146 12.4522 17.3502 11.5133 19.1292 10.8585C20.9024 10.2036 22.832 9.87332 24.9181 9.87332C27.4736 9.87332 29.7394 10.3195 31.7096 11.212C33.6798 12.1044 35.3139 13.3968 36.6062 15.0831L31.0606 20.0322C30.2899 19.0644 29.4438 18.3168 28.5109 17.7779C27.5779 17.2447 26.5291 16.9782 25.3643 16.9782C24.4488 16.9782 23.6143 17.1288 22.8726 17.4244C22.1309 17.7199 21.4876 18.1546 20.9545 18.7283C20.4214 19.302 20.0042 19.9858 19.7086 20.7914C19.4131 21.5969 19.2624 22.5009 19.2624 23.4919C19.2624 24.4829 19.4131 25.3869 19.7086 26.1924C20.0042 26.9979 20.4214 27.6876 20.9545 28.2613C21.4876 28.835 22.1251 29.2638 22.8726 29.5652C23.6143 29.8607 24.4488 30.0114 25.3643 30.0114C26.5291 30.0114 27.5779 29.7448 28.5109 29.2117C29.4438 28.6785 30.2899 27.9252 31.0606 26.9574L36.6062 31.9064C35.3139 33.5696 33.6856 34.8561 31.7096 35.7602C29.7336 36.6642 27.4736 37.122 24.9181 37.122Z" fill="white"/>
</svg>
