<svg width="16" height="16" viewBox="0 0 16 16" fill="none" xmlns="http://www.w3.org/2000/svg">
<rect width="16" height="16" rx="4" fill="white"/>
<g clip-path="url(#clip0_96_1156)">
<path d="M5.9 3H10.1C11.7 3 13 4.3 13 5.9V10.1C13 10.8691 12.6945 11.6068 12.1506 12.1506C11.6068 12.6945 10.8691 13 10.1 13H5.9C4.3 13 3 11.7 3 10.1V5.9C3 5.13087 3.30553 4.39325 3.84939 3.84939C4.39325 3.30553 5.13087 3 5.9 3ZM5.8 4C5.32261 4 4.86477 4.18964 4.52721 4.52721C4.18964 4.86477 4 5.32261 4 5.8V10.2C4 11.195 4.805 12 5.8 12H10.2C10.6774 12 11.1352 11.8104 11.4728 11.4728C11.8104 11.1352 12 10.6774 12 10.2V5.8C12 4.805 11.195 4 10.2 4H5.8ZM10.625 4.75C10.7908 4.75 10.9497 4.81585 11.0669 4.93306C11.1842 5.05027 11.25 5.20924 11.25 5.375C11.25 5.54076 11.1842 5.69973 11.0669 5.81694C10.9497 5.93415 10.7908 6 10.625 6C10.4592 6 10.3003 5.93415 10.1831 5.81694C10.0658 5.69973 10 5.54076 10 5.375C10 5.20924 10.0658 5.05027 10.1831 4.93306C10.3003 4.81585 10.4592 4.75 10.625 4.75ZM8 5.5C8.66304 5.5 9.29893 5.76339 9.76777 6.23223C10.2366 6.70107 10.5 7.33696 10.5 8C10.5 8.66304 10.2366 9.29893 9.76777 9.76777C9.29893 10.2366 8.66304 10.5 8 10.5C7.33696 10.5 6.70107 10.2366 6.23223 9.76777C5.76339 9.29893 5.5 8.66304 5.5 8C5.5 7.33696 5.76339 6.70107 6.23223 6.23223C6.70107 5.76339 7.33696 5.5 8 5.5ZM8 6.5C7.60218 6.5 7.22064 6.65804 6.93934 6.93934C6.65804 7.22064 6.5 7.60218 6.5 8C6.5 8.39782 6.65804 8.77936 6.93934 9.06066C7.22064 9.34196 7.60218 9.5 8 9.5C8.39782 9.5 8.77936 9.34196 9.06066 9.06066C9.34196 8.77936 9.5 8.39782 9.5 8C9.5 7.60218 9.34196 7.22064 9.06066 6.93934C8.77936 6.65804 8.39782 6.5 8 6.5Z" fill="black"/>
</g>
<defs>
<clipPath id="clip0_96_1156">
<rect width="10" height="10" fill="white" transform="translate(3 3)"/>
</clipPath>
</defs>
</svg>
