<svg width="10" height="10" viewBox="0 0 10 10" fill="none" xmlns="http://www.w3.org/2000/svg">
<rect width="10" height="10" rx="1" fill="white"/>
<path d="M2.6 7C2.435 7 2.2938 6.95108 2.1764 6.85325C2.059 6.75542 2.0002 6.63767 2 6.5V3.5C2 3.3625 2.0588 3.24483 2.1764 3.147C2.294 3.04917 2.4352 3.00017 2.6 3H7.4C7.565 3 7.7063 3.049 7.8239 3.147C7.9415 3.245 8.0002 3.36267 8 3.5V6.5C8 6.6375 7.9413 6.75525 7.8239 6.85325C7.7065 6.95125 7.5652 7.00017 7.4 7H2.6ZM5 5.25L2.6 4V6.5H7.4V4L5 5.25ZM5 4.75L7.4 3.5H2.6L5 4.75ZM2.6 4V3.5V6.5V4Z" fill="#47010F"/>
</svg>
