<svg width="10" height="10" viewBox="0 0 10 10" fill="none" xmlns="http://www.w3.org/2000/svg">
<rect width="10" height="10" rx="1" fill="#1F3D44"/>
<path d="M5 2C6.6569 2 8 3.3431 8 5C8 6.6569 6.6569 8 5 8C3.3431 8 2 6.6569 2 5C2 3.3431 3.3431 2 5 2ZM5 2.6C4.36348 2.6 3.75303 2.85286 3.30294 3.30294C2.85286 3.75303 2.6 4.36348 2.6 5C2.6 5.63652 2.85286 6.24697 3.30294 6.69706C3.75303 7.14714 4.36348 7.4 5 7.4C5.63652 7.4 6.24697 7.14714 6.69706 6.69706C7.14714 6.24697 7.4 5.63652 7.4 5C7.4 4.36348 7.14714 3.75303 6.69706 3.30294C6.24697 2.85286 5.63652 2.6 5 2.6ZM5 3.2C5.07348 3.20001 5.1444 3.22699 5.19931 3.27581C5.25422 3.32464 5.2893 3.39192 5.2979 3.4649L5.3 3.5V4.8758L6.1121 5.6879C6.1659 5.74189 6.19714 5.81433 6.19947 5.89052C6.20179 5.9667 6.17504 6.04091 6.12463 6.09808C6.07422 6.15525 6.00393 6.19109 5.92806 6.19832C5.85218 6.20555 5.7764 6.18362 5.7161 6.137L5.6879 6.1121L4.7879 5.2121C4.74127 5.16543 4.71133 5.1047 4.7027 5.0393L4.7 5V3.5C4.7 3.42044 4.73161 3.34413 4.78787 3.28787C4.84413 3.23161 4.92044 3.2 5 3.2Z" fill="white"/>
</svg>
