<svg width="24" height="24" viewBox="0 0 24 24" fill="none" xmlns="http://www.w3.org/2000/svg">
<rect x="24" y="24" width="24" height="24" rx="4" transform="rotate(-180 24 24)" fill="#990021"/>
<path d="M16.6069 5.07977C16.4884 5.02056 16.3551 4.99344 16.2216 5.00134C16.0881 5.00924 15.9593 5.05185 15.8494 5.12457L6.31572 11.4247C6.2183 11.4891 6.13869 11.5751 6.08371 11.6753C6.02872 11.7755 6 11.887 6 12.0001C6 12.1132 6.02872 12.2247 6.08371 12.3249C6.13869 12.4251 6.2183 12.5111 6.31572 12.5755L15.8494 18.8756C15.9594 18.9483 16.0881 18.9909 16.2217 18.9987C16.3552 19.0065 16.4885 18.9793 16.607 18.9201C16.7255 18.8608 16.8248 18.7717 16.894 18.6625C16.9633 18.5532 17 18.4279 17 18.3002L17 5.69998C17 5.5722 16.9634 5.44685 16.8941 5.33752C16.8248 5.22819 16.7255 5.13906 16.6069 5.07977Z" fill="white"/>
</svg>
