<?xml version="1.0" encoding="utf-8"?>
<!-- Generator: Adobe Illustrator 25.3.1, SVG Export Plug-In . SVG Version: 6.00 Build 0)  -->
<svg version="1.1" id="Capa_1" xmlns="http://www.w3.org/2000/svg" xmlns:xlink="http://www.w3.org/1999/xlink" x="0px" y="0px"
	 viewBox="0 0 500 500" style="enable-background:new 0 0 500 500;" xml:space="preserve">
<style type="text/css">
	.st0{fill:#990021;}
	.st1{fill:#009899;}
	.st2{fill:#FFFFFF;}
	.st3{fill:#C6C6C6;}
	.st4{fill:#050505;}
	.st5{fill:#545454;}
	.st6{fill:#C4C4C4;}
</style>
<symbol  id="Nuevo_símbolo_1" viewBox="-250 -249.98 500 499.97">
	<path class="st0" d="M212.04,142.68v-285.36c0-3.14-0.18-6.29-0.62-9.31c-4.56-33.91-33.6-60.04-68.74-60.04h-285.36
		c-3.21,0-6.29,0.18-9.37,0.68c-33.84,4.56-59.98,33.6-59.98,68.67v285.36c0,3.21,0.19,6.29,0.68,9.37
		c4.56,33.84,33.6,59.98,68.67,59.98h285.36c3.14,0,6.29-0.18,9.31-0.62C185.91,206.86,212.04,177.82,212.04,142.68z"/>
	<g>
		<g>
			<path class="st1" d="M152,211.41c-3.02,0.43-6.16,0.62-9.31,0.62H-34.6l102.46,34.34C101.14,257.52,136.96,242.05,152,211.41z"/>
			<path class="st1" d="M-211.34,152.05c-0.49-3.08-0.68-6.16-0.68-9.37V-34.62l-34.34,102.46
				C-257.58,101.13-242.04,137-211.34,152.05z"/>
			<path class="st1" d="M34.5-212.04l-102.33-34.34c-33.29-11.16-69.11,4.38-84.21,35.01c3.08-0.49,6.16-0.68,9.37-0.68H34.5z"/>
			<path class="st1" d="M211.43-151.99c0.43,3.02,0.62,6.16,0.62,9.31V34.49l34.34-102.33
				C257.54-101.13,242.07-136.89,211.43-151.99z"/>
		</g>
	</g>
	<g>
		<path class="st2" d="M15.05-144.93c-22.18,0-42.71,3.5-61.58,10.49c-18.88,6.99-35.25,16.96-49.11,29.9
			c-13.86,12.93-24.62,28.25-32.27,45.94c-7.66,17.69-11.49,37.23-11.49,58.61s3.83,40.92,11.49,58.61
			c7.65,17.68,18.42,33,32.27,45.94c13.86,12.93,30.23,22.9,49.11,29.9c18.87,6.99,39.4,10.49,61.58,10.49
			c27.19,0,51.29-4.75,72.27-14.26c20.99-9.51,38.35-23.23,52.08-41.19L80.39,36.84C72.21,47.13,63.16,55.12,53.26,60.8
			c-9.9,5.67-21.06,8.52-33.46,8.52c-9.77,0-18.61-1.58-26.53-4.75c-7.92-3.17-14.72-7.79-20.4-13.86
			c-5.68-6.07-10.1-13.4-13.27-21.98c-3.17-8.58-4.75-18.16-4.75-28.71c0-10.56,1.58-20.13,4.75-28.71
			c3.17-8.58,7.59-15.91,13.27-21.98c5.67-6.08,12.48-10.69,20.4-13.86c7.92-3.17,16.76-4.75,26.53-4.75
			c12.41,0,23.56,2.84,33.46,8.52c9.9,5.67,18.94,13.66,27.13,23.96l59.01-52.67c-13.73-17.69-31.09-31.35-52.08-40.99
			S42.24-144.93,15.05-144.93z"/>
	</g>
</symbol>
<g id="Nuevo_símbolo_2">
</g>
<g id="Nuevo_símbolo">
	
		<use xlink:href="#Nuevo_símbolo_1"  width="500" height="499.97" x="-250" y="-249.98" transform="matrix(1 0 0 -1 250 250)" style="overflow:visible;"/>
</g>
<g id="Nuevo_símbolo_2_1_">
</g>
</svg>
