<svg width="16" height="16" viewBox="0 0 16 16" fill="none" xmlns="http://www.w3.org/2000/svg">
<path fill-rule="evenodd" clip-rule="evenodd" d="M7.99984 1.33333C5.0545 1.33333 2.6665 4.002 2.6665 7C2.6665 9.97467 4.3685 13.208 7.0245 14.4493C7.32978 14.5923 7.66275 14.6664 7.99984 14.6664C8.33693 14.6664 8.66989 14.5923 8.97517 14.4493C11.6312 13.208 13.3332 9.97467 13.3332 7C13.3332 4.002 10.9452 1.33333 7.99984 1.33333ZM7.99984 8C8.35346 8 8.6926 7.85952 8.94265 7.60947C9.19269 7.35943 9.33317 7.02029 9.33317 6.66667C9.33317 6.31304 9.19269 5.97391 8.94265 5.72386C8.6926 5.47381 8.35346 5.33333 7.99984 5.33333C7.64622 5.33333 7.30708 5.47381 7.05703 5.72386C6.80698 5.97391 6.6665 6.31304 6.6665 6.66667C6.6665 7.02029 6.80698 7.35943 7.05703 7.60947C7.30708 7.85952 7.64622 8 7.99984 8Z" fill="white"/>
</svg>
