<svg width="17" height="17" viewBox="0 0 17 17" fill="none" xmlns="http://www.w3.org/2000/svg">
<rect x="0.5" y="0.5" width="16" height="16" rx="3" fill="#D9D9D9"/>
<path d="M3.33496 8.49993C3.33474 8.75043 3.39919 8.99676 3.52209 9.21505C3.64499 9.43333 3.82216 9.6162 4.03646 9.74593L10.805 13.8009C11.0252 13.9297 11.2754 13.9984 11.5305 14.0002C11.7856 14.002 12.0367 13.9367 12.2587 13.811C12.4807 13.6852 12.6657 13.5034 12.7954 13.2837C12.925 13.0639 12.9947 12.814 12.9975 12.5589L12.9975 4.44643C12.9957 4.19154 12.927 3.94159 12.7984 3.72153C12.6698 3.50147 12.4857 3.31899 12.2645 3.19233C12.0433 3.06567 11.7928 2.99925 11.5379 2.99971C11.283 3.00016 11.0327 3.06747 10.812 3.19493L4.03896 7.25293C3.82438 7.3828 3.64689 7.56577 3.52358 7.78419C3.40027 8.0026 3.33531 8.24911 3.33496 8.49993Z" fill="#1F3D44"/>
</svg>
