<svg width="17" height="17" viewBox="0 0 17 17" fill="none" xmlns="http://www.w3.org/2000/svg">
<rect x="0.5" y="0.5" width="16" height="16" rx="3" fill="#D9D9D9"/>
<path d="M13.665 8.50007C13.6653 8.24957 13.6008 8.00324 13.4779 7.78495C13.355 7.56667 13.1778 7.3838 12.9635 7.25407L6.19504 3.19907C5.97482 3.07027 5.72464 3.00155 5.46952 2.99979C5.2144 2.99803 4.9633 3.06328 4.74132 3.18903C4.51934 3.31478 4.33427 3.49661 4.20462 3.71633C4.07497 3.93605 4.00528 4.18597 4.00254 4.44107L4.00254 12.5536C4.00434 12.8085 4.07297 13.0584 4.20158 13.2785C4.33019 13.4985 4.51428 13.681 4.73548 13.8077C4.95667 13.9343 5.20721 14.0007 5.4621 14.0003C5.71699 13.9998 5.9673 13.9325 6.18804 13.8051L12.961 9.74707C13.1756 9.6172 13.3531 9.43423 13.4764 9.21581C13.5997 8.9974 13.6647 8.75089 13.665 8.50007Z" fill="#1F3D44"/>
</svg>
