<svg width="10" height="10" viewBox="0 0 10 10" fill="none" xmlns="http://www.w3.org/2000/svg">
<rect width="10" height="10" rx="1" fill="#1F3D44"/>
<path fill-rule="evenodd" clip-rule="evenodd" d="M2 4.39535C2 2.80035 3.33886 1.5 5 1.5C6.66114 1.5 8 2.80035 8 4.39535C8 5.16534 7.76891 5.99231 7.36023 6.70662C6.95223 7.41996 6.35634 8.03986 5.61063 8.37097C5.4195 8.45595 5.21104 8.5 5 8.5C4.78896 8.5 4.5805 8.45595 4.38937 8.37097C3.64366 8.03986 3.04777 7.42029 2.63977 6.70662C2.23109 5.99231 2 5.16534 2 4.39535ZM5 1.98836C3.63131 1.98836 2.51429 3.06179 2.51429 4.39535C2.51429 5.07809 2.72103 5.82529 3.09166 6.47351C3.46263 7.12238 3.9872 7.6534 4.60709 7.92851C4.73001 7.9832 4.86409 8.01155 4.99983 8.01155C5.13557 8.01155 5.26965 7.9832 5.39257 7.92851C6.0128 7.6534 6.53737 7.12238 6.90834 6.47351C7.27897 5.82561 7.48571 5.07809 7.48571 4.39535C7.48571 3.06179 6.36869 1.98836 5 1.98836ZM5 3.61625C4.89869 3.61625 4.79838 3.6352 4.70479 3.67201C4.61119 3.70882 4.52615 3.76278 4.45452 3.83081C4.38288 3.89883 4.32606 3.97959 4.28729 4.06846C4.24853 4.15734 4.22857 4.2526 4.22857 4.3488C4.22857 4.445 4.24853 4.54025 4.28729 4.62913C4.32606 4.71801 4.38288 4.79876 4.45452 4.86679C4.52615 4.93481 4.61119 4.98877 4.70479 5.02558C4.79838 5.0624 4.89869 5.08134 5 5.08134C5.2046 5.08134 5.40081 5.00416 5.54548 4.86679C5.69015 4.72941 5.77143 4.54308 5.77143 4.3488C5.77143 4.15451 5.69015 3.96819 5.54548 3.83081C5.40081 3.69343 5.2046 3.61625 5 3.61625ZM3.71429 4.3488C3.71429 4.02499 3.84974 3.71445 4.09086 3.48548C4.33198 3.25651 4.65901 3.12788 5 3.12788C5.34099 3.12788 5.66802 3.25651 5.90914 3.48548C6.15026 3.71445 6.28571 4.02499 6.28571 4.3488C6.28571 4.6726 6.15026 4.98315 5.90914 5.21211C5.66802 5.44108 5.34099 5.56971 5 5.56971C4.65901 5.56971 4.33198 5.44108 4.09086 5.21211C3.84974 4.98315 3.71429 4.6726 3.71429 4.3488Z" fill="white"/>
</svg>
