<svg width="10" height="10" viewBox="0 0 10 10" fill="none" xmlns="http://www.w3.org/2000/svg">
<rect width="10" height="10" rx="1" fill="#1F3D44"/>
<g clip-path="url(#clip0_429_66)">
<path d="M5.01311 1.66677C3.19311 1.66677 1.70977 3.1501 1.70977 4.9701C1.70977 5.55343 1.86311 6.1201 2.14977 6.6201L1.68311 8.33343L3.43311 7.87343C3.91644 8.13677 4.45977 8.27677 5.01311 8.27677C6.83311 8.27677 8.31644 6.79343 8.31644 4.97343C8.31644 4.0901 7.97311 3.2601 7.34977 2.63677C7.04413 2.32813 6.68011 2.08342 6.27894 1.91689C5.87777 1.75035 5.44747 1.66533 5.01311 1.66677ZM5.01644 2.22343C5.74977 2.22343 6.43644 2.5101 6.95644 3.0301C7.21157 3.28527 7.41385 3.58827 7.5517 3.92174C7.68955 4.25521 7.76026 4.6126 7.75977 4.97343C7.75977 6.48677 6.52644 7.71677 5.01311 7.71677C4.51977 7.71677 4.03644 7.58677 3.61644 7.33343L3.51644 7.27677L2.47644 7.5501L2.75311 6.53677L2.68644 6.4301C2.41129 5.9929 2.26566 5.48668 2.26644 4.9701C2.26977 3.45677 3.49977 2.22343 5.01644 2.22343ZM3.84311 3.44343C3.78977 3.44343 3.69977 3.46343 3.62311 3.54677C3.54977 3.6301 3.33311 3.83343 3.33311 4.23677C3.33311 4.64343 3.62977 5.03343 3.66644 5.0901C3.71311 5.14677 4.25311 5.9801 5.08311 6.33343C5.27977 6.42343 5.43311 6.47343 5.55311 6.5101C5.74977 6.57343 5.92977 6.56343 6.07311 6.54343C6.23311 6.5201 6.55977 6.34343 6.62977 6.1501C6.69977 5.95677 6.69977 5.79343 6.67977 5.75677C6.65644 5.72343 6.6031 5.70343 6.51977 5.66677C6.43644 5.6201 6.02977 5.4201 5.95644 5.39343C5.87977 5.36677 5.83311 5.35343 5.76977 5.43343C5.71644 5.51677 5.55644 5.70343 5.50977 5.75677C5.45977 5.81343 5.41311 5.8201 5.33311 5.7801C5.24644 5.73677 4.97977 5.6501 4.66644 5.3701C4.41977 5.1501 4.25644 4.8801 4.20644 4.79677C4.16644 4.71677 4.20311 4.66677 4.24311 4.6301C4.27977 4.59343 4.33311 4.53343 4.36644 4.48343C4.40977 4.43677 4.42311 4.4001 4.44977 4.34677C4.47644 4.2901 4.46311 4.24343 4.44311 4.20343C4.42311 4.16677 4.25644 3.75343 4.18644 3.5901C4.11977 3.4301 4.05311 3.4501 3.99977 3.44677C3.95311 3.44677 3.89977 3.44343 3.84311 3.44343Z" fill="white"/>
</g>
<defs>
<clipPath id="clip0_429_66">
<rect width="8" height="8" fill="white" transform="translate(1 1)"/>
</clipPath>
</defs>
</svg>
