<svg width="10" height="10" viewBox="0 0 10 10" fill="none" xmlns="http://www.w3.org/2000/svg">
<path d="M6.91673 2.425C6.63198 2.0998 6.47502 1.68225 6.47507 1.25H5.18757V6.41667C5.17784 6.69633 5.05987 6.96128 4.85853 7.15562C4.65719 7.34997 4.38823 7.4585 4.1084 7.45833C3.51673 7.45833 3.02507 6.975 3.02507 6.375C3.02507 5.65833 3.71673 5.12083 4.42923 5.34167V4.025C2.99173 3.83333 1.7334 4.95 1.7334 6.375C1.7334 7.7625 2.8834 8.75 4.10423 8.75C5.41257 8.75 6.47507 7.6875 6.47507 6.375V3.75417C6.99715 4.1291 7.62397 4.33027 8.26673 4.32917V3.04167C8.26673 3.04167 7.4834 3.07917 6.91673 2.425Z" fill="black"/>
</svg>
