<svg width="12" height="12" viewBox="0 0 12 12" fill="none" xmlns="http://www.w3.org/2000/svg">
<g clip-path="url(#clip0_535_396)">
<path d="M0.834961 5.99968C0.834736 6.25019 0.899193 6.49651 1.02209 6.7148C1.14499 6.93309 1.32216 7.11595 1.53646 7.24568L8.30496 11.3007C8.52518 11.4295 8.77536 11.4982 9.03048 11.5C9.2856 11.5017 9.5367 11.4365 9.75868 11.3107C9.98066 11.185 10.1657 11.0031 10.2954 10.7834C10.425 10.5637 10.4947 10.3138 10.4975 10.0587L10.4975 1.94618C10.4957 1.6913 10.427 1.44135 10.2984 1.22128C10.1698 1.00122 9.98571 0.818749 9.76452 0.692087C9.54333 0.565425 9.29279 0.499006 9.0379 0.499461C8.78301 0.499916 8.5327 0.56723 8.31196 0.694681L1.53896 4.75268C1.32438 4.88256 1.14689 5.06553 1.02358 5.28394C0.900269 5.50236 0.835309 5.74886 0.834961 5.99968Z" fill="black"/>
</g>
<defs>
<clipPath id="clip0_535_396">
<rect width="12" height="12" fill="white" transform="translate(0 12) rotate(-90)"/>
</clipPath>
</defs>
</svg>
