<?xml version="1.0" encoding="utf-8"?>
<!-- Generator: Adobe Illustrator 25.3.1, SVG Export Plug-In . SVG Version: 6.00 Build 0)  -->
<svg version="1.1" id="Capa_1" xmlns="http://www.w3.org/2000/svg" xmlns:xlink="http://www.w3.org/1999/xlink" x="0px" y="0px"
	 viewBox="0 0 1080 360" style="enable-background:new 0 0 1080 360;" xml:space="preserve">
<style type="text/css">
	.st0{fill:#990021;}
	.st1{fill:#C6C6C6;}
	.st2{fill:#FFFFFF;}
	.st3{fill:#050505;}
	.st4{fill:#009899;}
	.st5{fill:#545454;}
	.st6{fill:#C4C4C4;}
</style>
<g id="Nuevo_símbolo_2">
</g>
<g id="Nuevo_símbolo">
	<g>
		<g>
			<g>
				<g>
					<path class="st2" d="M367.2,147.2c-2.67-1.62-5.26-2.44-7.77-2.44c-2.52,0-4.8,0.66-6.85,1.98c-2.06,1.32-3.65,3.14-4.78,5.47
						c-1.14,2.33-1.7,4.97-1.7,7.91s0.57,5.6,1.7,7.96c1.13,2.36,2.73,4.22,4.78,5.57c2.05,1.35,4.34,2.02,6.85,2.02
						c2.33,0,4.83-0.69,7.5-2.07s5.04-3.2,7.13-5.47l12.33,13.15c-3.62,3.99-7.96,7.16-13.02,9.52c-5.06,2.36-10.07,3.54-15.04,3.54
						c-6.5,0-12.34-1.46-17.52-4.37c-5.18-2.91-9.24-6.96-12.19-12.14c-2.94-5.18-4.42-10.99-4.42-17.43c0-6.38,1.5-12.1,4.51-17.15
						c3-5.06,7.16-9.03,12.46-11.91c5.3-2.88,11.3-4.32,17.98-4.32c4.91,0,9.84,1.09,14.81,3.26c4.97,2.18,9.11,5.08,12.42,8.69
						l-12.33,14.62C372.15,150.96,369.87,148.83,367.2,147.2z"/>
					<path class="st2" d="M440.19,131.34c5.4,2.88,9.61,6.87,12.65,11.96c3.04,5.09,4.55,10.82,4.55,17.2
						c0,6.44-1.52,12.23-4.55,17.38c-3.04,5.15-7.25,9.18-12.65,12.1c-5.4,2.91-11.47,4.37-18.21,4.37
						c-6.75,0-12.82-1.46-18.21-4.37c-5.4-2.91-9.61-6.94-12.65-12.1c-3.04-5.15-4.55-10.95-4.55-17.38s1.52-12.2,4.55-17.29
						c3.04-5.09,7.25-9.06,12.65-11.91c5.4-2.85,11.47-4.28,18.21-4.28C428.72,127.01,434.79,128.46,440.19,131.34z M415.4,146.84
						c-2.12,1.38-3.8,3.27-5.06,5.66c-1.26,2.39-1.89,5.09-1.89,8.09c0,3,0.63,5.72,1.89,8.14c1.26,2.42,2.94,4.34,5.06,5.75
						c2.12,1.41,4.4,2.12,6.85,2.12c2.45,0,4.69-0.69,6.71-2.07c2.02-1.38,3.62-3.3,4.78-5.75c1.16-2.45,1.75-5.18,1.75-8.19
						c0-3-0.58-5.72-1.75-8.14c-1.17-2.42-2.76-4.31-4.78-5.66c-2.02-1.35-4.26-2.02-6.71-2.02
						C419.8,144.77,417.52,145.46,415.4,146.84z"/>
					<path class="st2" d="M506.69,128.39H526v64.48h-17.84l-25.39-32.93v32.93h-19.41v-64.48h17.84l25.48,33.11V128.39z"/>
					<path class="st2" d="M568.22,155.71h27.96v30.17c-3.62,2.45-8.25,4.48-13.89,6.07c-5.64,1.59-10.76,2.39-15.36,2.39
						c-6.68,0-12.68-1.46-17.98-4.37c-5.3-2.91-9.46-6.93-12.46-12.05c-3.01-5.12-4.51-10.9-4.51-17.34
						c0-6.38,1.56-12.12,4.69-17.25c3.13-5.12,7.45-9.12,12.97-12c5.52-2.88,11.74-4.32,18.67-4.32c5.03,0,9.9,0.92,14.62,2.76
						c4.72,1.84,8.8,4.29,12.23,7.36l-12.05,14.62c-2.15-2.15-4.51-3.85-7.08-5.1c-2.58-1.26-5.18-1.89-7.82-1.89
						c-2.7,0-5.15,0.69-7.36,2.07s-3.92,3.27-5.15,5.66c-1.23,2.39-1.84,5.09-1.84,8.09c0,3.07,0.63,5.81,1.89,8.23
						c1.26,2.42,2.99,4.32,5.2,5.7c2.21,1.38,4.69,2.07,7.45,2.07c2.33,0,5.15-0.74,8.46-2.21v-3.96h-8.65V155.71z"/>
					<path class="st2" d="M603.08,128.39h54.54v16.19h-33.2v7.91h30.17v16.19h-30.17v8h34.03v16.19h-55.37V128.39z"/>
					<path class="st2" d="M709.87,128.39h19.32v64.48h-17.84l-25.39-32.93v32.93h-19.41v-64.48h17.84l25.48,33.11V128.39z"/>
					<path class="st2" d="M797.12,134.28c4.45,3.86,6.67,9.32,6.67,16.37c0,7.36-2.22,13.08-6.67,17.15
						c-4.45,4.08-10.72,6.12-18.81,6.12h-14.07v18.95h-12.33v-64.39h26.4C786.4,128.49,792.67,130.42,797.12,134.28z M788.38,160.03
						c2.48-2.02,3.73-5.03,3.73-9.01c0-3.92-1.24-6.87-3.73-8.83c-2.48-1.96-6.06-2.94-10.72-2.94h-13.43v23.82h13.43
						C782.32,163.07,785.9,162.06,788.38,160.03z"/>
					<path class="st2" d="M814,128.49h47.19v10.76h-34.86v15.91h31.27v10.76h-31.27v16.19h35.96v10.76H814V128.49z"/>
					<path class="st2" d="M915.08,192.87l-11.13-19.04c-0.49,0.06-1.26,0.09-2.3,0.09h-14.53v18.95h-12.33v-64.39h26.86
						c8.34,0,14.78,1.93,19.32,5.79c4.54,3.86,6.81,9.32,6.81,16.37c0,5.03-1.09,9.32-3.27,12.88c-2.18,3.56-5.35,6.22-9.52,8
						l14.17,21.34H915.08z M887.12,163.07h14.53c4.66,0,8.22-1.01,10.67-3.04c2.45-2.02,3.68-5.03,3.68-9.01
						c0-3.92-1.23-6.87-3.68-8.83c-2.45-1.96-6.01-2.94-10.67-2.94h-14.53V163.07z"/>
					<path class="st2" d="M956.75,178.34c2.88,2.88,6.75,4.32,11.59,4.32c4.84,0,8.66-1.44,11.45-4.32
						c2.79-2.88,4.19-6.87,4.19-11.96v-37.9h12.33v37.9c0,5.58-1.14,10.44-3.4,14.58c-2.27,4.14-5.5,7.31-9.7,9.52
						c-4.2,2.21-9.15,3.31-14.85,3.31c-5.76,0-10.78-1.1-15.04-3.31c-4.26-2.21-7.53-5.38-9.8-9.52c-2.27-4.14-3.4-9-3.4-14.58
						v-37.9h12.33v37.9C952.42,171.47,953.86,175.46,956.75,178.34z M971.74,109.17l11.5,4.69l-11.77,9.47l-9.29-0.92L971.74,109.17
						z"/>
				</g>
				<g>
					<path class="st6" d="M349.41,224.26c-0.87-0.44-1.75-0.66-2.63-0.66c-1.06,0-2.03,0.26-2.91,0.78
						c-0.88,0.52-1.57,1.23-2.08,2.13c-0.5,0.9-0.76,1.9-0.76,3s0.25,2.1,0.76,3.01c0.5,0.91,1.2,1.63,2.08,2.16
						c0.88,0.53,1.85,0.8,2.91,0.8c0.85,0,1.7-0.2,2.58-0.61c0.87-0.41,1.65-0.95,2.33-1.63l2.51,2.73
						c-1.01,1.04-2.19,1.87-3.55,2.48c-1.36,0.61-2.72,0.92-4.09,0.92c-1.85,0-3.54-0.43-5.05-1.28c-1.51-0.85-2.7-2.03-3.56-3.52
						c-0.86-1.49-1.3-3.16-1.3-4.99c0-1.82,0.44-3.46,1.32-4.94c0.88-1.47,2.09-2.64,3.63-3.48s3.24-1.27,5.11-1.27
						c1.37,0,2.72,0.28,4.05,0.85c1.33,0.57,2.46,1.34,3.4,2.31l-2.48,3.05C351.04,225.31,350.28,224.7,349.41,224.26z"/>
					<path class="st6" d="M379.32,221.14c1.55,0.85,2.77,2.01,3.66,3.5s1.34,3.13,1.34,4.95c0,1.82-0.45,3.47-1.34,4.96
						c-0.89,1.49-2.11,2.67-3.66,3.52c-1.55,0.86-3.27,1.28-5.15,1.28s-3.61-0.43-5.15-1.28c-1.55-0.85-2.77-2.02-3.66-3.51
						s-1.34-3.14-1.34-4.98c0-1.82,0.45-3.47,1.34-4.95s2.1-2.65,3.64-3.5s3.26-1.27,5.17-1.27
						C376.06,219.88,377.78,220.3,379.32,221.14z M371.31,224.4c-0.9,0.53-1.61,1.25-2.13,2.17c-0.52,0.92-0.78,1.92-0.78,3.02
						c0,1.12,0.27,2.13,0.8,3.05c0.53,0.92,1.24,1.65,2.13,2.19c0.89,0.54,1.86,0.81,2.9,0.81s2-0.26,2.87-0.8
						c0.87-0.53,1.57-1.26,2.08-2.19s0.77-1.95,0.77-3.06c0-1.1-0.26-2.11-0.77-3.02c-0.51-0.92-1.21-1.64-2.08-2.17
						c-0.87-0.53-1.83-0.8-2.87-0.8S372.21,223.87,371.31,224.4z"/>
					<path class="st6" d="M409.17,220.17h4.05v18.89h-3.89l-9.15-12.14v12.14h-4.07v-18.89h3.89l9.18,12.2V220.17z"/>
					<path class="st6" d="M424.5,220.17h15.79v3.62h-5.78v15.27h-4.26v-15.27h-5.75V220.17z"/>
					<path class="st6" d="M463.17,239.06l-3-5.4h-0.4h-3.94v5.4h-4.26v-18.89h8.2c2.46,0,4.37,0.57,5.72,1.71
						c1.35,1.14,2.02,2.76,2.02,4.84c0,1.46-0.3,2.7-0.9,3.74c-0.6,1.03-1.48,1.82-2.63,2.36l4.02,6.23H463.17z M455.83,230.1h3.94
						c1.19,0,2.1-0.27,2.74-0.82c0.64-0.55,0.96-1.35,0.96-2.42c0-1.04-0.32-1.83-0.96-2.36c-0.64-0.53-1.55-0.8-2.74-0.8h-3.94
						V230.1z"/>
					<path class="st6" d="M494.04,239.06l-1.48-3.67h-8.74l-1.48,3.67h-4.4l8.2-18.89h4.4l8.07,18.89H494.04z M485.22,231.97h5.96
						l-2.97-7.34L485.22,231.97z"/>
					<path class="st6" d="M505.73,220.17h15.79v3.62h-5.78v15.27h-4.26v-15.27h-5.75V220.17z"/>
					<path class="st6" d="M532.79,220.17h4.26v18.89h-4.26V220.17z"/>
					<path class="st6" d="M559.58,224.02c-1.09-0.35-2.02-0.53-2.79-0.53c-0.74,0-1.32,0.13-1.75,0.41
						c-0.43,0.27-0.65,0.67-0.65,1.19c0,0.67,0.31,1.17,0.93,1.52c0.62,0.35,1.58,0.71,2.87,1.09c1.29,0.38,2.36,0.76,3.2,1.13
						s1.55,0.94,2.15,1.7c0.59,0.75,0.89,1.75,0.89,3c0,1.21-0.32,2.24-0.96,3.12s-1.52,1.53-2.63,1.98
						c-1.12,0.45-2.38,0.67-3.81,0.67c-1.53,0-3.03-0.27-4.51-0.81c-1.48-0.54-2.75-1.28-3.83-2.21l1.7-3.48
						c0.95,0.86,2.05,1.56,3.29,2.08s2.37,0.78,3.4,0.78c0.88,0,1.57-0.16,2.06-0.49c0.49-0.32,0.74-0.79,0.74-1.4
						c0-0.49-0.17-0.89-0.5-1.2c-0.33-0.31-0.76-0.57-1.27-0.77c-0.51-0.2-1.22-0.42-2.12-0.67c-1.3-0.36-2.35-0.72-3.17-1.08
						c-0.82-0.36-1.52-0.91-2.12-1.65c-0.59-0.74-0.89-1.72-0.89-2.94c0-1.13,0.31-2.13,0.92-2.98c0.61-0.85,1.47-1.51,2.56-1.97
						c1.1-0.46,2.38-0.69,3.83-0.69c1.3,0,2.57,0.19,3.83,0.57s2.38,0.88,3.35,1.51l-1.65,3.54
						C561.69,224.84,560.66,224.37,559.58,224.02z"/>
					<path class="st6" d="M574.54,220.17h15.79v3.62h-5.78v15.27h-4.26v-15.27h-5.75V220.17z"/>
					<path class="st6" d="M613.59,239.06l-1.48-3.67h-8.74l-1.48,3.67h-4.4l8.2-18.89h4.4l8.07,18.89H613.59z M604.76,231.97h5.96
						l-2.97-7.34L604.76,231.97z"/>
					<path class="st6" d="M638.35,224.02c-1.09-0.35-2.02-0.53-2.79-0.53c-0.74,0-1.32,0.13-1.75,0.41
						c-0.43,0.27-0.65,0.67-0.65,1.19c0,0.67,0.31,1.17,0.93,1.52c0.62,0.35,1.58,0.71,2.87,1.09c1.29,0.38,2.36,0.76,3.2,1.13
						s1.55,0.94,2.15,1.7c0.59,0.75,0.89,1.75,0.89,3c0,1.21-0.32,2.24-0.96,3.12s-1.52,1.53-2.63,1.98
						c-1.12,0.45-2.38,0.67-3.81,0.67c-1.53,0-3.03-0.27-4.51-0.81c-1.48-0.54-2.75-1.28-3.83-2.21l1.7-3.48
						c0.95,0.86,2.05,1.56,3.29,2.08s2.37,0.78,3.4,0.78c0.88,0,1.57-0.16,2.06-0.49c0.49-0.32,0.74-0.79,0.74-1.4
						c0-0.49-0.17-0.89-0.5-1.2c-0.33-0.31-0.76-0.57-1.27-0.77c-0.51-0.2-1.22-0.42-2.12-0.67c-1.3-0.36-2.35-0.72-3.17-1.08
						c-0.82-0.36-1.52-0.91-2.12-1.65c-0.59-0.74-0.89-1.72-0.89-2.94c0-1.13,0.31-2.13,0.92-2.98c0.61-0.85,1.47-1.51,2.56-1.97
						c1.1-0.46,2.38-0.69,3.83-0.69c1.3,0,2.57,0.19,3.83,0.57s2.38,0.88,3.35,1.51l-1.65,3.54
						C640.47,224.84,639.44,224.37,638.35,224.02z"/>
					<path class="st6" d="M679.43,228.21h7.58v8.66c-1.01,0.74-2.24,1.34-3.7,1.79c-1.46,0.46-2.83,0.69-4.13,0.69
						c-1.89,0-3.6-0.43-5.13-1.28c-1.53-0.85-2.73-2.02-3.62-3.51s-1.32-3.14-1.32-4.98c0-1.82,0.45-3.47,1.35-4.95
						c0.9-1.48,2.14-2.65,3.71-3.5c1.57-0.85,3.32-1.27,5.25-1.27c1.4,0,2.75,0.25,4.03,0.76c1.29,0.5,2.42,1.19,3.39,2.05
						l-2.4,3.05c-0.7-0.67-1.48-1.19-2.35-1.57s-1.75-0.57-2.67-0.57c-1.1,0-2.1,0.27-3.01,0.8c-0.91,0.53-1.62,1.25-2.15,2.16
						s-0.78,1.92-0.78,3.04c0,1.12,0.27,2.14,0.8,3.06c0.53,0.93,1.25,1.66,2.16,2.19c0.91,0.53,1.91,0.8,3.01,0.8
						c0.56,0,1.16-0.09,1.81-0.28c0.65-0.19,1.28-0.45,1.89-0.77v-2.48h-3.72V228.21z"/>
					<path class="st6" d="M699.57,220.17h14.38v3.54h-10.12v4.1h9.09v3.54h-9.09v4.18h10.42v3.54h-14.68V220.17z"/>
					<path class="st6" d="M739.64,220.17h4.05v18.89h-3.89l-9.15-12.14v12.14h-4.07v-18.89h3.89l9.18,12.2V220.17z"/>
					<path class="st6" d="M756.83,220.17h14.38v3.54h-10.12v4.1h9.09v3.54h-9.09v4.18h10.42v3.54h-14.68V220.17z"/>
					<path class="st6" d="M795.45,239.06l-3-5.4h-0.4h-3.94v5.4h-4.26v-18.89h8.2c2.46,0,4.37,0.57,5.72,1.71
						c1.35,1.14,2.02,2.76,2.02,4.84c0,1.46-0.3,2.7-0.9,3.74c-0.6,1.03-1.48,1.82-2.63,2.36l4.02,6.23H795.45z M788.11,230.1h3.94
						c1.19,0,2.1-0.27,2.74-0.82c0.64-0.55,0.96-1.35,0.96-2.42c0-1.04-0.32-1.83-0.96-2.36c-0.64-0.53-1.55-0.8-2.74-0.8h-3.94
						V230.1z"/>
					<path class="st6" d="M826.32,239.06l-1.48-3.67h-8.74l-1.48,3.67h-4.4l8.2-18.89h4.4l8.07,18.89H826.32z M817.5,231.97h5.96
						l-2.97-7.34L817.5,231.97z"/>
					<path class="st6" d="M841.84,220.17h4.26v15.17h8.1v3.72h-12.36V220.17z"/>
					<path class="st6" d="M865.72,220.17h14.38v3.54h-10.12v4.1h9.09v3.54h-9.09v4.18h10.42v3.54h-14.68V220.17z"/>
					<path class="st6" d="M902.08,224.02c-1.09-0.35-2.02-0.53-2.79-0.53c-0.74,0-1.32,0.13-1.75,0.41
						c-0.43,0.27-0.65,0.67-0.65,1.19c0,0.67,0.31,1.17,0.93,1.52c0.62,0.35,1.58,0.71,2.87,1.09c1.29,0.38,2.36,0.76,3.2,1.13
						s1.55,0.94,2.15,1.7c0.59,0.75,0.89,1.75,0.89,3c0,1.21-0.32,2.24-0.96,3.12s-1.52,1.53-2.63,1.98
						c-1.12,0.45-2.38,0.67-3.81,0.67c-1.53,0-3.03-0.27-4.51-0.81c-1.48-0.54-2.75-1.28-3.83-2.21l1.7-3.48
						c0.95,0.86,2.05,1.56,3.29,2.08s2.37,0.78,3.4,0.78c0.88,0,1.57-0.16,2.06-0.49c0.49-0.32,0.74-0.79,0.74-1.4
						c0-0.49-0.17-0.89-0.5-1.2c-0.33-0.31-0.76-0.57-1.27-0.77c-0.51-0.2-1.22-0.42-2.12-0.67c-1.3-0.36-2.35-0.72-3.17-1.08
						c-0.82-0.36-1.52-0.91-2.12-1.65c-0.59-0.74-0.89-1.72-0.89-2.94c0-1.13,0.31-2.13,0.92-2.98c0.61-0.85,1.47-1.51,2.56-1.97
						c1.1-0.46,2.38-0.69,3.83-0.69c1.3,0,2.57,0.19,3.83,0.57s2.38,0.88,3.35,1.51l-1.65,3.54
						C904.2,224.84,903.17,224.37,902.08,224.02z"/>
				</g>
			</g>
			<g>
				<path class="st0" d="M222.13,137.25v85.5c0,0.94-0.06,1.88-0.18,2.79c-1.37,10.16-10.07,17.99-20.59,17.99h-85.5
					c-0.96,0-1.88-0.06-2.81-0.2c-10.14-1.37-17.97-10.07-17.97-20.58v-85.5c0-0.96,0.06-1.88,0.2-2.81
					c1.37-10.14,10.07-17.97,20.58-17.97h85.5c0.94,0,1.88,0.06,2.79,0.18C214.3,118.02,222.13,126.72,222.13,137.25z"/>
				<g>
					<g>
						<path class="st4" d="M204.14,116.66c-0.9-0.13-1.85-0.18-2.79-0.18h-53.12l30.7-10.29
							C188.91,102.84,199.64,107.48,204.14,116.66z"/>
						<path class="st4" d="M95.28,134.45c-0.15,0.92-0.2,1.85-0.2,2.81v53.12l-10.29-30.7C81.43,149.7,86.09,138.95,95.28,134.45z"
							/>
						<path class="st4" d="M168.94,243.53l-30.66,10.29c-9.97,3.34-20.7-1.31-25.23-10.49c0.92,0.15,1.85,0.2,2.81,0.2H168.94z"/>
						<path class="st4" d="M221.95,225.54c0.13-0.9,0.18-1.85,0.18-2.79v-53.08l10.29,30.66
							C235.76,210.3,231.13,221.01,221.95,225.54z"/>
					</g>
				</g>
				<g>
					<path class="st2" d="M163.11,223.42c-6.64,0-12.8-1.05-18.45-3.14c-5.66-2.09-10.56-5.08-14.71-8.96
						c-4.15-3.87-7.38-8.46-9.67-13.76c-2.3-5.3-3.44-11.15-3.44-17.56c0-6.41,1.15-12.26,3.44-17.56c2.29-5.3,5.52-9.89,9.67-13.76
						c4.15-3.88,9.06-6.86,14.71-8.96c5.65-2.09,11.81-3.14,18.45-3.14c8.15,0,15.37,1.42,21.65,4.27
						c6.29,2.85,11.49,6.96,15.6,12.34l-17.68,15.78c-2.45-3.08-5.16-5.48-8.13-7.18c-2.97-1.7-6.31-2.55-10.03-2.55
						c-2.93,0-5.58,0.47-7.95,1.42c-2.37,0.95-4.41,2.33-6.11,4.15c-1.7,1.82-3.03,4.02-3.97,6.58c-0.95,2.57-1.42,5.44-1.42,8.6
						c0,3.16,0.47,6.03,1.42,8.6c0.95,2.57,2.27,4.77,3.97,6.59c1.7,1.82,3.74,3.2,6.11,4.15c2.37,0.95,5.02,1.42,7.95,1.42
						c3.72,0,7.06-0.85,10.03-2.55c2.97-1.7,5.68-4.09,8.13-7.18l17.68,15.78c-4.11,5.3-9.31,9.39-15.6,12.28
						S171.26,223.42,163.11,223.42z"/>
				</g>
			</g>
		</g>
	</g>
</g>
<g id="Nuevo_símbolo_2_1_">
</g>
</svg>
