<svg width="249" height="85" viewBox="0 0 249 85" fill="none" xmlns="http://www.w3.org/2000/svg">
<path d="M76.8318 34.8801C76.2166 34.5037 75.6198 34.3132 75.0414 34.3132C74.4608 34.3132 73.9354 34.4666 73.463 34.7732C72.9883 35.0799 72.622 35.5027 72.3616 36.044C72.0989 36.5853 71.9699 37.1986 71.9699 37.8816C71.9699 38.5646 72.1012 39.1825 72.3616 39.7308C72.622 40.279 72.9906 40.7111 73.463 41.0248C73.9354 41.3384 74.4631 41.494 75.0414 41.494C75.5783 41.494 76.1544 41.3337 76.7696 41.0132C77.3848 40.6926 77.9309 40.2698 78.4125 39.7424L81.2537 42.7973C80.4195 43.7242 79.4195 44.4607 78.2535 45.0089C77.0876 45.5572 75.9332 45.8313 74.788 45.8313C73.2902 45.8313 71.9445 45.4921 70.7509 44.8161C69.5573 44.1401 68.6218 43.1992 67.9421 41.9958C67.2646 40.7925 66.9236 39.4427 66.9236 37.9466C66.9236 36.4645 67.2692 35.1356 67.9628 33.9625C68.6541 32.787 69.6126 31.8647 70.8339 31.1956C72.0551 30.5265 73.4377 30.192 74.9769 30.192C76.1083 30.192 77.2443 30.4452 78.3895 30.9494C79.5347 31.4558 80.4887 32.1295 81.2514 32.9682L78.4102 36.3646C77.9724 35.7536 77.4471 35.2588 76.8318 34.8801Z" fill="white"/>
<path d="M93.6505 31.1956C94.8948 31.8647 95.8649 32.7916 96.5654 33.9741C97.2659 35.1566 97.6138 36.4877 97.6138 37.9699C97.6138 39.466 97.2636 40.8111 96.5654 42.0075C95.8649 43.2039 94.8948 44.1401 93.6505 44.8185C92.4062 45.4945 91.0075 45.8337 89.4545 45.8337C87.8991 45.8337 86.5004 45.4945 85.2585 44.8185C84.0142 44.1424 83.0441 43.2062 82.3436 42.0075C81.6431 40.8111 81.2952 39.4636 81.2952 37.9699C81.2952 36.4761 81.6454 35.1357 82.3436 33.9532C83.0441 32.7707 84.0142 31.8484 85.2585 31.1863C86.5027 30.5242 87.9014 30.192 89.4545 30.192C91.0075 30.1897 92.4062 30.5266 93.6505 31.1956ZM87.9383 34.7965C87.4498 35.1171 87.0627 35.5561 86.7723 36.1114C86.482 36.6666 86.3368 37.2938 86.3368 37.9908C86.3368 38.6877 86.482 39.3196 86.7723 39.8818C87.0627 40.444 87.4498 40.89 87.9383 41.2176C88.4268 41.5452 88.9522 41.7101 89.5167 41.7101C90.0812 41.7101 90.5974 41.5498 91.0628 41.2292C91.5283 40.9086 91.897 40.4626 92.1643 39.8934C92.4316 39.3243 92.5675 38.69 92.5675 37.9908C92.5675 37.2938 92.4339 36.6619 92.1643 36.0997C91.8947 35.5376 91.5283 35.0985 91.0628 34.7849C90.5974 34.4712 90.0812 34.3156 89.5167 34.3156C88.9522 34.3156 88.4268 34.4759 87.9383 34.7965Z" fill="white"/>
<path d="M108.974 30.5104H113.423V45.4899H109.313L103.462 37.8399V45.4899H98.9895V30.5104H103.1L108.971 38.2023V30.5104H108.974Z" fill="white"/>
<path d="M123.152 36.8571H129.594V43.866C128.76 44.4351 127.693 44.9067 126.394 45.2761C125.094 45.6455 123.914 45.8313 122.854 45.8313C121.315 45.8313 119.933 45.4922 118.711 44.8161C117.49 44.1401 116.532 43.2062 115.84 42.0167C115.147 40.8273 114.801 39.4845 114.801 37.9884C114.801 36.5063 115.16 35.1728 115.882 33.981C116.603 32.7916 117.598 31.8624 118.87 31.1933C120.142 30.5242 121.576 30.1897 123.172 30.1897C124.331 30.1897 125.454 30.4034 126.541 30.8309C127.629 31.2583 128.569 31.8275 129.359 32.5407L126.583 35.9371C126.087 35.4376 125.543 35.0427 124.951 34.7523C124.357 34.4596 123.758 34.3133 123.149 34.3133C122.527 34.3133 121.963 34.4735 121.453 34.7941C120.944 35.1147 120.55 35.5538 120.267 36.109C119.983 36.6643 119.843 37.2915 119.843 37.9884C119.843 38.7016 119.988 39.3382 120.278 39.9004C120.569 40.4626 120.967 40.904 121.476 41.2246C121.986 41.5452 122.557 41.7055 123.193 41.7055C123.73 41.7055 124.38 41.5335 125.142 41.192V40.2721H123.149V36.8571H123.152Z" fill="white"/>
<path d="M131.184 30.5104H143.752V34.2715H136.102V36.1091H143.053V39.8703H136.102V41.7288H143.943V45.4899H131.184V30.5104Z" fill="white"/>
<path d="M155.791 30.5104H160.243V45.4899H156.132L150.282 37.8399V45.4899H145.809V30.5104H149.92L155.791 38.2023V30.5104Z" fill="white"/>
<path d="M175.896 31.8787C176.921 32.7754 177.433 34.0438 177.433 35.6816C177.433 37.3915 176.921 38.7203 175.896 39.6658C174.87 40.6136 173.426 41.0876 171.561 41.0876H168.319V45.4899H165.478V30.5312H171.561C173.426 30.5336 174.87 30.9819 175.896 31.8787ZM173.882 37.8607C174.453 37.3915 174.741 36.6922 174.741 35.7676C174.741 34.8569 174.456 34.1716 173.882 33.7163C173.31 33.2609 172.485 33.0333 171.412 33.0333H168.317V38.567H171.412C172.485 38.567 173.31 38.3323 173.882 37.8607Z" fill="white"/>
<path d="M179.785 30.5336H190.659V33.0333H182.627V36.7294H189.832V39.229H182.627V42.9902H190.913V45.4899H179.785V30.5336Z" fill="white"/>
<path d="M203.077 45.4899L200.512 41.0666C200.399 41.0806 200.222 41.0876 199.982 41.0876H196.634V45.4899H193.793V30.5312H199.982C201.904 30.5312 203.388 30.9796 204.434 31.8763C205.48 32.7731 206.003 34.0415 206.003 35.6793C206.003 36.8478 205.752 37.8445 205.25 38.6715C204.747 39.4985 204.017 40.1165 203.056 40.53L206.321 45.4876H203.077V45.4899ZM196.634 38.567H199.982C201.056 38.567 201.876 38.3323 202.441 37.8607C203.005 37.3915 203.289 36.6922 203.289 35.7676C203.289 34.8569 203.005 34.1716 202.441 33.7163C201.876 33.2609 201.056 33.0333 199.982 33.0333H196.634V38.567Z" fill="white"/>
<path d="M212.678 42.1144C213.342 42.7834 214.234 43.118 215.349 43.118C216.464 43.118 217.344 42.7834 217.987 42.1144C218.63 41.4453 218.953 40.5184 218.953 39.3359V30.5313H221.794V39.3359C221.794 40.6322 221.531 41.7613 221.011 42.723C220.487 43.6848 219.743 44.4212 218.775 44.9347C217.808 45.4481 216.667 45.7036 215.354 45.7036C214.026 45.7036 212.87 45.4481 211.888 44.9347C210.906 44.4212 210.153 43.6848 209.63 42.723C209.107 41.7613 208.846 40.6322 208.846 39.3359V30.5313H211.688V39.3359C211.681 40.5184 212.012 41.4453 212.678 42.1144ZM216.132 26.0453L218.782 27.1348L216.07 29.3348L213.93 29.1211L216.132 26.0453Z" fill="white"/>
<path d="M72.7327 52.7812C72.5322 52.679 72.3295 52.6279 72.1267 52.6279C71.8824 52.6279 71.6589 52.6883 71.4561 52.8091C71.2534 52.9299 71.0944 53.0948 70.9769 53.3039C70.8617 53.513 70.8017 53.7453 70.8017 54.0008C70.8017 54.2564 70.8593 54.4887 70.9769 54.7001C71.0921 54.9115 71.2534 55.0788 71.4561 55.2019C71.6589 55.325 71.8824 55.3877 72.1267 55.3877C72.3225 55.3877 72.5184 55.3413 72.7212 55.246C72.9216 55.1508 73.1014 55.0253 73.2581 54.8674L73.8364 55.5016C73.6037 55.7432 73.3318 55.936 73.0184 56.0777C72.705 56.2194 72.3917 56.2914 72.076 56.2914C71.6497 56.2914 71.2603 56.1916 70.9123 55.9941C70.5644 55.7966 70.2902 55.5225 70.092 55.1763C69.8939 54.8302 69.7925 54.4422 69.7925 54.0171C69.7925 53.5943 69.8939 53.2133 70.0966 52.8695C70.2994 52.528 70.5782 52.2562 70.9331 52.061C71.2879 51.8659 71.6797 51.766 72.1105 51.766C72.4262 51.766 72.7373 51.831 73.0438 51.9635C73.3502 52.0959 73.6106 52.2748 73.8272 52.5001L73.2558 53.2087C73.1083 53.0251 72.9332 52.8834 72.7327 52.7812Z" fill="#C4C4C4"/>
<path d="M79.6246 52.0574C79.9818 52.2548 80.2629 52.5243 80.468 52.8705C80.673 53.2166 80.7767 53.5976 80.7767 54.0204C80.7767 54.4432 80.673 54.8265 80.468 55.1727C80.2629 55.5188 79.9818 55.793 79.6246 55.9904C79.2675 56.1902 78.8711 56.2878 78.4379 56.2878C78.0047 56.2878 77.6061 56.1879 77.2512 55.9904C76.8941 55.793 76.613 55.5212 76.4079 55.175C76.2028 54.8289 76.0991 54.4455 76.0991 54.0181C76.0991 53.5953 76.2028 53.212 76.4079 52.8681C76.613 52.5243 76.8918 52.2525 77.2466 52.055C77.6015 51.8576 77.9978 51.76 78.4379 51.76C78.8734 51.7647 79.2698 51.8622 79.6246 52.0574ZM77.7789 52.8147C77.5715 52.9378 77.4079 53.1051 77.2881 53.3188C77.1683 53.5326 77.1084 53.7649 77.1084 54.0204C77.1084 54.2806 77.1706 54.5152 77.2927 54.729C77.4148 54.9427 77.5784 55.1123 77.7835 55.2377C77.9886 55.3632 78.2121 55.4259 78.4518 55.4259C78.6914 55.4259 78.9126 55.3655 79.1131 55.2401C79.3135 55.1169 79.4748 54.9473 79.5924 54.7313C79.7099 54.5152 79.7698 54.2783 79.7698 54.0204C79.7698 53.7649 79.7099 53.5302 79.5924 53.3188C79.4748 53.1051 79.3135 52.9378 79.1131 52.8147C78.9126 52.6916 78.6914 52.6289 78.4518 52.6289C78.2121 52.6289 77.9863 52.6916 77.7789 52.8147Z" fill="#C4C4C4"/>
<path d="M86.5028 51.832H87.436V56.2204H86.5396L84.4312 53.4001V56.2204H83.4934V51.832H84.3898L86.5051 54.6662V51.832H86.5028Z" fill="#C4C4C4"/>
<path d="M90.0352 51.832H93.6736V52.673H92.3417V56.2204H91.3601V52.673H90.0352V51.832Z" fill="#C4C4C4"/>
<path d="M98.9459 56.2204L98.2546 54.9659H98.1624H97.2546V56.2204H96.2729V51.832H98.1624C98.7293 51.832 99.1694 51.9645 99.4805 52.2293C99.7915 52.4941 99.9459 52.8705 99.9459 53.3537C99.9459 53.6929 99.8768 53.9809 99.7385 54.2225C99.6003 54.4618 99.3975 54.6453 99.1325 54.7708L100.059 56.2181H98.9459V56.2204ZM97.2546 54.1389H98.1624C98.4366 54.1389 98.6463 54.0762 98.7938 53.9484C98.9413 53.8206 99.015 53.6348 99.015 53.3862C99.015 53.1446 98.9413 52.9611 98.7938 52.8379C98.6463 52.7148 98.4366 52.6521 98.1624 52.6521H97.2546V54.1389Z" fill="#C4C4C4"/>
<path d="M106.059 56.2204L105.718 55.3678H103.704L103.363 56.2204H102.349L104.239 51.832H105.252L107.112 56.2204H106.059ZM104.027 54.5733H105.4L104.716 52.8681L104.027 54.5733Z" fill="#C4C4C4"/>
<path d="M108.753 51.832H112.391V52.673H111.059V56.2204H110.078V52.673H108.753V51.832Z" fill="#C4C4C4"/>
<path d="M114.988 51.832H115.969V56.2204H114.988V51.832Z" fill="#C4C4C4"/>
<path d="M121.161 52.7264C120.91 52.6451 120.695 52.6033 120.518 52.6033C120.348 52.6033 120.214 52.6335 120.115 52.6986C120.016 52.7613 119.965 52.8542 119.965 52.975C119.965 53.1307 120.036 53.2468 120.179 53.3281C120.322 53.4094 120.543 53.4931 120.841 53.5814C121.138 53.6696 121.384 53.7579 121.578 53.8439C121.772 53.9298 121.935 54.0622 122.073 54.2388C122.209 54.413 122.278 54.6453 122.278 54.9357C122.278 55.2168 122.205 55.4561 122.057 55.6606C121.91 55.865 121.707 56.016 121.451 56.1205C121.193 56.2251 120.903 56.2762 120.573 56.2762C120.221 56.2762 119.875 56.2135 119.534 56.088C119.193 55.9626 118.9 55.7907 118.652 55.5746L119.043 54.7662C119.262 54.9659 119.516 55.1286 119.801 55.2494C120.087 55.3702 120.348 55.4306 120.585 55.4306C120.788 55.4306 120.947 55.3934 121.06 55.3167C121.172 55.2424 121.23 55.1332 121.23 54.9915C121.23 54.8777 121.191 54.7847 121.115 54.7127C121.039 54.6407 120.94 54.5803 120.822 54.5338C120.705 54.4874 120.541 54.4363 120.334 54.3782C120.034 54.2946 119.792 54.2109 119.603 54.1273C119.414 54.0437 119.253 53.9159 119.115 53.744C118.979 53.5721 118.91 53.3444 118.91 53.061C118.91 52.7985 118.981 52.5661 119.122 52.3687C119.262 52.1712 119.46 52.0179 119.712 51.911C119.965 51.8042 120.26 51.7507 120.594 51.7507C120.894 51.7507 121.186 51.7949 121.477 51.8831C121.767 51.9714 122.025 52.0876 122.249 52.2339L121.868 53.0563C121.647 52.9169 121.41 52.8078 121.161 52.7264Z" fill="#C4C4C4"/>
<path d="M124.608 51.832H128.247V52.673H126.915V56.2204H125.933V52.673H124.608V51.832Z" fill="#C4C4C4"/>
<path d="M133.606 56.2204L133.265 55.3678H131.251L130.91 56.2204H129.896L131.786 51.832H132.8L134.659 56.2204H133.606ZM131.571 54.5733H132.945L132.26 52.8681L131.571 54.5733Z" fill="#C4C4C4"/>
<path d="M139.312 52.7264C139.06 52.6451 138.846 52.6033 138.669 52.6033C138.498 52.6033 138.365 52.6335 138.265 52.6986C138.166 52.7613 138.116 52.8542 138.116 52.975C138.116 53.1307 138.187 53.2468 138.33 53.3281C138.473 53.4094 138.694 53.4931 138.991 53.5814C139.289 53.6696 139.535 53.7579 139.729 53.8439C139.922 53.9298 140.086 54.0622 140.224 54.2388C140.36 54.413 140.429 54.6453 140.429 54.9357C140.429 55.2168 140.355 55.4561 140.208 55.6606C140.06 55.865 139.858 56.016 139.602 56.1205C139.344 56.2251 139.053 56.2762 138.724 56.2762C138.371 56.2762 138.026 56.2135 137.685 56.088C137.344 55.9626 137.051 55.7907 136.802 55.5746L137.194 54.7662C137.413 54.9659 137.666 55.1286 137.952 55.2494C138.238 55.3702 138.498 55.4306 138.735 55.4306C138.938 55.4306 139.097 55.3934 139.21 55.3167C139.323 55.2424 139.381 55.1332 139.381 54.9915C139.381 54.8777 139.342 54.7847 139.265 54.7127C139.189 54.6407 139.09 54.5803 138.973 54.5338C138.855 54.4874 138.692 54.4363 138.484 54.3782C138.185 54.2946 137.943 54.2109 137.754 54.1273C137.565 54.0437 137.404 53.9159 137.265 53.744C137.129 53.5721 137.06 53.3444 137.06 53.061C137.06 52.7985 137.132 52.5661 137.272 52.3687C137.413 52.1712 137.611 52.0179 137.862 51.911C138.116 51.8042 138.411 51.7507 138.745 51.7507C139.044 51.7507 139.337 51.7949 139.627 51.8831C139.918 51.9714 140.176 52.0876 140.399 52.2339L140.019 53.0563C139.8 52.9169 139.563 52.8078 139.312 52.7264Z" fill="#C4C4C4"/>
<path d="M148.777 53.6998H150.524V55.7117C150.291 55.8836 150.008 56.023 149.671 56.1275C149.335 56.2344 149.019 56.2878 148.72 56.2878C148.284 56.2878 147.89 56.1879 147.538 55.9904C147.185 55.793 146.909 55.5212 146.704 55.175C146.498 54.8289 146.399 54.4455 146.399 54.0181C146.399 53.5953 146.503 53.212 146.71 52.8681C146.918 52.5243 147.204 52.2525 147.565 52.055C147.927 51.8576 148.33 51.76 148.775 51.76C149.098 51.76 149.409 51.8181 149.704 51.9366C150.001 52.0527 150.261 52.213 150.485 52.4128L149.932 53.1214C149.771 52.9657 149.591 52.8449 149.39 52.7566C149.19 52.6684 148.987 52.6242 148.775 52.6242C148.522 52.6242 148.291 52.6869 148.082 52.8101C147.872 52.9332 147.708 53.1005 147.586 53.3119C147.464 53.5233 147.406 53.7579 147.406 54.0181C147.406 54.2783 147.469 54.5152 147.591 54.729C147.713 54.945 147.879 55.1146 148.088 55.2377C148.298 55.3609 148.529 55.4236 148.782 55.4236C148.911 55.4236 149.049 55.4027 149.199 55.3585C149.349 55.3144 149.494 55.254 149.635 55.1797V54.6035H148.777V53.6998Z" fill="#C4C4C4"/>
<path d="M153.418 51.832H156.731V52.6544H154.4V53.6069H156.494V54.4293H154.4V55.4004H156.801V56.2227H153.418V51.832Z" fill="#C4C4C4"/>
<path d="M162.651 51.832H163.584V56.2204H162.688L160.58 53.4001V56.2204H159.642V51.832H160.538L162.653 54.6662V51.832H162.651Z" fill="#C4C4C4"/>
<path d="M166.612 51.832H169.926V52.6544H167.594V53.6069H169.688V54.4293H167.594V55.4004H169.995V56.2227H166.612V51.832Z" fill="#C4C4C4"/>
<path d="M175.511 56.2204L174.82 54.9659H174.728H173.82V56.2204H172.838V51.832H174.728C175.294 51.832 175.735 51.9645 176.046 52.2293C176.357 52.4941 176.511 52.8705 176.511 53.3537C176.511 53.6929 176.442 53.9809 176.304 54.2225C176.165 54.4618 175.963 54.6453 175.698 54.7708L176.624 56.2181H175.511V56.2204ZM173.82 54.1389H174.728C175.002 54.1389 175.212 54.0762 175.359 53.9484C175.506 53.8206 175.58 53.6348 175.58 53.3862C175.58 53.1446 175.506 52.9611 175.359 52.8379C175.212 52.7148 175.002 52.6521 174.728 52.6521H173.82V54.1389Z" fill="#C4C4C4"/>
<path d="M182.624 56.2204L182.283 55.3678H180.269L179.928 56.2204H178.915L180.804 51.832H181.818L183.677 56.2204H182.624ZM180.592 54.5733H181.965L181.281 52.8681L180.592 54.5733Z" fill="#C4C4C4"/>
<path d="M186.2 51.832H187.182V55.3562H189.048V56.2204H186.2V51.832Z" fill="#C4C4C4"/>
<path d="M191.703 51.832H195.017V52.6544H192.685V53.6069H194.779V54.4293H192.685V55.4004H195.086V56.2227H191.703V51.832Z" fill="#C4C4C4"/>
<path d="M200.081 52.7264C199.83 52.6451 199.616 52.6033 199.438 52.6033C199.268 52.6033 199.134 52.6335 199.035 52.6986C198.936 52.7613 198.885 52.8542 198.885 52.975C198.885 53.1307 198.957 53.2468 199.1 53.3281C199.243 53.4094 199.464 53.4931 199.761 53.5814C200.058 53.6696 200.305 53.7579 200.498 53.8439C200.692 53.9298 200.856 54.0622 200.994 54.2388C201.13 54.413 201.199 54.6453 201.199 54.9357C201.199 55.2168 201.125 55.4561 200.978 55.6606C200.83 55.865 200.627 56.016 200.372 56.1205C200.114 56.2251 199.823 56.2762 199.494 56.2762C199.141 56.2762 198.796 56.2135 198.455 56.088C198.114 55.9626 197.821 55.7907 197.572 55.5746L197.964 54.7662C198.183 54.9659 198.436 55.1286 198.722 55.2494C199.008 55.3702 199.268 55.4306 199.505 55.4306C199.708 55.4306 199.867 55.3934 199.98 55.3167C200.093 55.2424 200.15 55.1332 200.15 54.9915C200.15 54.8777 200.111 54.7847 200.035 54.7127C199.959 54.6407 199.86 54.5803 199.743 54.5338C199.625 54.4874 199.461 54.4363 199.254 54.3782C198.955 54.2946 198.713 54.2109 198.524 54.1273C198.335 54.0437 198.173 53.9159 198.035 53.744C197.899 53.5721 197.83 53.3444 197.83 53.061C197.83 52.7985 197.902 52.5661 198.042 52.3687C198.183 52.1712 198.381 52.0179 198.632 51.911C198.885 51.8042 199.18 51.7507 199.514 51.7507C199.814 51.7507 200.107 51.7949 200.397 51.8831C200.687 51.9714 200.945 52.0876 201.169 52.2339L200.789 53.0563C200.57 52.9169 200.333 52.8078 200.081 52.7264Z" fill="#C4C4C4"/>
<path d="M51.1841 32.5687V52.4314C51.1841 52.6498 51.1703 52.8682 51.1426 53.0796C50.8269 55.4399 48.8222 57.2589 46.3982 57.2589H26.6969C26.4757 57.2589 26.2637 57.245 26.0494 57.2124C23.7129 56.8942 21.9087 54.873 21.9087 52.4314V32.5687C21.9087 32.3457 21.9225 32.1319 21.9548 31.9159C22.2705 29.5602 24.2751 27.7412 26.6969 27.7412H46.3982C46.6148 27.7412 46.8314 27.7551 47.0411 27.783C49.3799 28.1013 51.1841 30.1224 51.1841 32.5687Z" fill="#434343"/>
<path d="M47.0388 27.7853C46.8314 27.7551 46.6125 27.7435 46.3959 27.7435H34.1558L41.2298 25.353C43.5294 24.5748 46.0019 25.6527 47.0388 27.7853Z" fill="#ACADAD"/>
<path d="M21.9547 31.9182C21.9202 32.1319 21.9087 32.348 21.9087 32.571V44.9115L19.5376 37.7795C18.7634 35.461 19.8371 32.9636 21.9547 31.9182Z" fill="#ACADAD"/>
<path d="M38.9277 57.2589L31.8629 59.6494C29.5656 60.4253 27.0931 59.345 26.0493 57.2124C26.2613 57.2472 26.4756 57.2589 26.6968 57.2589H38.9277Z" fill="#ACADAD"/>
<path d="M51.1426 53.0795C51.1725 52.8705 51.1841 52.6498 51.1841 52.4314V40.1002L53.5551 47.2229C54.3247 49.5391 53.2579 52.0272 51.1426 53.0795Z" fill="#ACADAD"/>
<path d="M37.5843 52.587C36.0543 52.587 34.6349 52.3431 33.333 51.8576C32.0288 51.372 30.8997 50.6774 29.9435 49.776C28.9872 48.877 28.2429 47.8107 27.7153 46.5794C27.1853 45.3481 26.9226 43.9891 26.9226 42.5C26.9226 41.0109 27.1876 39.6518 27.7153 38.4206C28.2429 37.1893 28.9872 36.123 29.9435 35.2239C30.8997 34.3226 32.0311 33.6303 33.333 33.1424C34.6349 32.6569 36.0543 32.413 37.5843 32.413C39.4623 32.413 41.126 32.7428 42.573 33.4049C44.0224 34.067 45.2206 35.0218 46.1676 36.2717L42.0937 39.9376C41.5292 39.2221 40.9048 38.6645 40.2204 38.2696C39.536 37.8746 38.7664 37.6772 37.9092 37.6772C37.2341 37.6772 36.6235 37.7864 36.0774 38.0071C35.5313 38.2278 35.0612 38.5483 34.6695 38.9712C34.2778 39.394 33.9713 39.9051 33.7547 40.4998C33.5358 41.0968 33.4275 41.7636 33.4275 42.4977C33.4275 43.2318 33.5358 43.8985 33.7547 44.4956C33.9736 45.0926 34.2778 45.6037 34.6695 46.0265C35.0612 46.4493 35.5313 46.7699 36.0774 46.9906C36.6235 47.2113 37.2341 47.3205 37.9092 47.3205C38.7664 47.3205 39.536 47.123 40.2204 46.7281C40.9048 46.3332 41.5292 45.7779 42.0937 45.0601L46.1676 48.726C45.2206 49.9572 44.0224 50.9074 42.573 51.5788C41.1237 52.2502 39.4623 52.587 37.5843 52.587Z" fill="white"/>
</svg>
