<svg width="24" height="24" viewBox="0 0 24 24" fill="none" xmlns="http://www.w3.org/2000/svg">
<rect width="24" height="24" rx="4" fill="#990021"/>
<path d="M7.39308 18.9202C7.51162 18.9794 7.64487 19.0066 7.7784 18.9987C7.91193 18.9908 8.04065 18.9481 8.15063 18.8754L17.6843 12.5753C17.7817 12.5109 17.8613 12.4249 17.9163 12.3247C17.9713 12.2245 18 12.113 18 11.9999C18 11.8868 17.9713 11.7753 17.9163 11.6751C17.8613 11.5749 17.7817 11.4889 17.6843 11.4245L8.15064 5.12437C8.04061 5.0517 7.91186 5.00915 7.77832 5.00132C7.64478 4.99349 7.51154 5.02068 7.39303 5.07994C7.27451 5.13921 7.17525 5.22829 7.10597 5.33755C7.03669 5.4468 7.00005 5.57207 7 5.69978L7 18.3C6.99998 18.4278 7.03659 18.5531 7.10589 18.6625C7.17518 18.7718 7.27449 18.8609 7.39308 18.9202Z" fill="white"/>
</svg>
