<svg width="10" height="10" viewBox="0 0 10 10" fill="none" xmlns="http://www.w3.org/2000/svg">
<rect width="10" height="10" rx="1" fill="white"/>
<g clip-path="url(#clip0_94_1052)">
<path d="M5.01335 1.66664C3.19335 1.66664 1.71002 3.14998 1.71002 4.96998C1.71002 5.55331 1.86335 6.11998 2.15002 6.61998L1.68335 8.33331L3.43335 7.87331C3.91668 8.13664 4.46002 8.27664 5.01335 8.27664C6.83335 8.27664 8.31668 6.79331 8.31668 4.97331C8.31668 4.08998 7.97335 3.25998 7.35002 2.63664C7.04437 2.32801 6.68036 2.0833 6.27919 1.91676C5.87802 1.75023 5.44771 1.6652 5.01335 1.66664ZM5.01668 2.22331C5.75002 2.22331 6.43668 2.50998 6.95668 3.02998C7.21181 3.28515 7.41409 3.58815 7.55194 3.92162C7.68979 4.25509 7.7605 4.61247 7.76002 4.97331C7.76002 6.48664 6.52668 7.71664 5.01335 7.71664C4.52002 7.71664 4.03668 7.58664 3.61668 7.33331L3.51668 7.27664L2.47668 7.54998L2.75335 6.53664L2.68668 6.42998C2.41153 5.99278 2.26591 5.48655 2.26668 4.96998C2.27002 3.45664 3.50002 2.22331 5.01668 2.22331ZM3.84335 3.44331C3.79002 3.44331 3.70002 3.46331 3.62335 3.54664C3.55002 3.62998 3.33335 3.83331 3.33335 4.23664C3.33335 4.64331 3.63002 5.03331 3.66668 5.08998C3.71335 5.14664 4.25335 5.97998 5.08335 6.33331C5.28002 6.42331 5.43335 6.47331 5.55335 6.50998C5.75002 6.57331 5.93002 6.56331 6.07335 6.54331C6.23335 6.51998 6.56002 6.34331 6.63002 6.14998C6.70002 5.95664 6.70002 5.79331 6.68002 5.75664C6.65668 5.72331 6.60335 5.70331 6.52002 5.66664C6.43668 5.61998 6.03002 5.41998 5.95668 5.39331C5.88002 5.36664 5.83335 5.35331 5.77002 5.43331C5.71668 5.51664 5.55668 5.70331 5.51002 5.75664C5.46002 5.81331 5.41335 5.81998 5.33335 5.77998C5.24668 5.73664 4.98002 5.64998 4.66668 5.36998C4.42002 5.14998 4.25668 4.87998 4.20668 4.79664C4.16668 4.71664 4.20335 4.66664 4.24335 4.62998C4.28002 4.59331 4.33335 4.53331 4.36668 4.48331C4.41002 4.43664 4.42335 4.39998 4.45002 4.34664C4.47668 4.28998 4.46335 4.24331 4.44335 4.20331C4.42335 4.16664 4.25668 3.75331 4.18668 3.58998C4.12002 3.42998 4.05335 3.44998 4.00002 3.44664C3.95335 3.44664 3.90002 3.44331 3.84335 3.44331Z" fill="#47010F"/>
</g>
<defs>
<clipPath id="clip0_94_1052">
<rect width="8" height="8" fill="white" transform="translate(1 1)"/>
</clipPath>
</defs>
</svg>
