<svg width="12" height="12" viewBox="0 0 12 12" fill="none" xmlns="http://www.w3.org/2000/svg">
<g clip-path="url(#clip0_535_398)">
<path d="M11.165 6.00032C11.1653 5.74981 11.1008 5.50349 10.9779 5.2852C10.855 5.06691 10.6778 4.88405 10.4635 4.75432L3.69504 0.699317C3.47482 0.570516 3.22464 0.501797 2.96952 0.500034C2.7144 0.498272 2.4633 0.563528 2.24132 0.689274C2.01934 0.81502 1.83427 0.996849 1.70462 1.21657C1.57497 1.4363 1.50528 1.68621 1.50254 1.94132L1.50254 10.0538C1.50434 10.3087 1.57297 10.5587 1.70158 10.7787C1.83019 10.9988 2.01428 11.1812 2.23548 11.3079C2.45667 11.4346 2.70721 11.501 2.9621 11.5005C3.21699 11.5001 3.4673 11.4328 3.68804 11.3053L10.461 7.24732C10.6756 7.11744 10.8531 6.93447 10.9764 6.71606C11.0997 6.49764 11.1647 6.25114 11.165 6.00032Z" fill="black"/>
</g>
<defs>
<clipPath id="clip0_535_398">
<rect width="12" height="12" fill="white" transform="translate(12) rotate(90)"/>
</clipPath>
</defs>
</svg>
