<svg width="16" height="16" viewBox="0 0 16 16" fill="none" xmlns="http://www.w3.org/2000/svg">
<rect width="16" height="16" rx="4" fill="white"/>
<path d="M9.91673 5.425C9.63198 5.0998 9.47502 4.68225 9.47507 4.25H8.18757V9.41667C8.17784 9.69633 8.05987 9.96128 7.85853 10.1556C7.65719 10.35 7.38823 10.4585 7.1084 10.4583C6.51673 10.4583 6.02507 9.975 6.02507 9.375C6.02507 8.65833 6.71673 8.12083 7.42923 8.34167V7.025C5.99173 6.83333 4.7334 7.95 4.7334 9.375C4.7334 10.7625 5.8834 11.75 7.10423 11.75C8.41257 11.75 9.47507 10.6875 9.47507 9.375V6.75417C9.99715 7.1291 10.624 7.33027 11.2667 7.32917V6.04167C11.2667 6.04167 10.4834 6.07917 9.91673 5.425Z" fill="black"/>
</svg>
